<svg xmlns="http://www.w3.org/2000/svg" viewBox="0 0 1600 1050" role="img" aria-labelledby="title desc">
  <title id="title">Kit de evento Lado B Networking</title>
  <desc id="desc">Aplicações da marca em camiseta, ecobag, caneta e crachá.</desc>
  <defs><filter id="s" x="-30%" y="-30%" width="160%" height="170%"><feDropShadow dy="22" stdDeviation="22" flood-color="#401332" flood-opacity=".18"/></filter></defs>
  <rect width="1600" height="1050" rx="52" fill="#F4DED5"/>
  <path d="M0 762C282 626 477 904 747 773s525-144 853-17v294H0z" fill="#FF7A21" opacity=".86"/>
  <g filter="url(#s)" transform="translate(79 88)">
    <path d="M205 67l141-50 141 50 126 107-89 121-73-52v526H241V243l-73 52-89-121z" fill="#FFF7EB"/>
    <path d="M252 50c12 72 176 72 188 0" fill="#F4DED5" stroke="#E6C9BD" stroke-width="7"/>
    <g transform="translate(267 260)">
      <rect x="-14" y="56" width="172" height="108" rx="25" fill="none" stroke="#FF4F87" stroke-width="11"/>
      <text x="0" y="126" fill="#401332" font-family="Avenir Next, Arial, sans-serif" font-size="48" font-weight="900" letter-spacing="-3">LADO</text>
      <path d="M122 83c32-2 50-16 67-40" fill="none" stroke="#FF7A21" stroke-width="8" stroke-linecap="round"/>
      <path d="M174 44l21-10-2 23" fill="none" stroke="#FF7A21" stroke-width="8" stroke-linecap="round" stroke-linejoin="round"/>
      <text x="165" y="153" fill="#FF7A21" font-family="Georgia, serif" font-size="105" font-weight="700" font-style="italic">B</text>
      <text x="-8" y="224" fill="#401332" font-family="Avenir Next, Arial, sans-serif" font-size="16" font-weight="700" letter-spacing="5">NETWORKING</text>
    </g>
  </g>
  <g filter="url(#s)" transform="translate(677 163)">
    <path d="M100 153h430l66 674H34z" fill="#FF4F87"/>
    <path d="M181 184c0-105 40-151 132-151s132 46 132 151" fill="none" stroke="#401332" stroke-width="25"/>
    <path d="M34 448c136-93 254 103 390 10 68-46 126-43 168-22l29 278-553 30z" fill="none" stroke="#FFF7EB" stroke-width="18" stroke-linecap="round" opacity=".72"/>
    <text x="115" y="348" fill="#FFF7EB" font-family="Georgia, serif" font-size="79" font-weight="700" font-style="italic">Leve seu</text>
    <text x="107" y="427" fill="#401332" font-family="Avenir Next, Arial, sans-serif" font-size="84" font-weight="900">LADO B</text>
    <text x="126" y="662" fill="#FFF7EB" font-family="Avenir Next, Arial, sans-serif" font-size="24" font-weight="700" letter-spacing="3">CONEXÕES - NOVOS LADOS.</text>
  </g>
  <g filter="url(#s)" transform="translate(1225 99) rotate(4 100 340)">
    <rect width="235" height="620" rx="27" fill="#FFF7EB"/>
    <rect x="20" y="20" width="195" height="292" rx="18" fill="#401332"/>
    <circle cx="118" cy="77" r="31" fill="#FFB547"/>
    <text x="45" y="177" fill="#FFF7EB" font-family="Avenir Next, Arial, sans-serif" font-size="21" font-weight="700" letter-spacing="3">EU SOU</text>
    <text x="40" y="223" fill="#FF4F87" font-family="Georgia, serif" font-size="37" font-weight="700" font-style="italic">lado B.</text>
    <text x="39" y="374" fill="#401332" font-family="Avenir Next, Arial, sans-serif" font-size="25" font-weight="800">SEU NOME</text>
    <text x="39" y="412" fill="#FF4F87" font-family="Avenir Next, Arial, sans-serif" font-size="15" font-weight="700">NEGÓCIO / ÁREA</text>
    <rect x="36" y="478" width="163" height="80" rx="15" fill="#FF7A21"/>
    <text x="73" y="528" fill="#401332" font-family="Avenir Next, Arial, sans-serif" font-size="18" font-weight="900">CONECTE ↗</text>
  </g>
  <g filter="url(#s)" transform="translate(1124 830) rotate(-7)">
    <rect width="373" height="65" rx="32.5" fill="#401332"/>
    <rect x="266" width="72" height="65" rx="9" fill="#FFB547"/>
    <path d="M338 12h35v41h-35" fill="#FF4F87"/>
    <text x="33" y="42" fill="#FFF7EB" font-family="Avenir Next, Arial, sans-serif" font-size="21" font-weight="800" letter-spacing="3">LADO B NETWORKING</text>
  </g>
</svg>
