<svg xmlns="http://www.w3.org/2000/svg" xmlns:xlink="http://www.w3.org/1999/xlink" width="1920" zoomAndPan="magnify" viewBox="0 0 1440 809.999993" height="1080" preserveAspectRatio="xMidYMid meet" version="1.0"><defs><g/><clipPath id="500dca1276"><path d="M 0 215 L 310.5 215 L 310.5 550 L 0 550 Z M 0 215 " clip-rule="nonzero"/></clipPath><clipPath id="790e5dc483"><rect x="0" width="950" y="0" height="246"/></clipPath><clipPath id="a8f96b95c1"><rect x="0" width="637" y="0" height="196"/></clipPath></defs><g clip-path="url(#500dca1276)"><path fill="#fc7306" d="M 10.550781 303.136719 C 10.550781 304.832031 10.550781 306.527344 10.550781 308.21875 C 10.550781 385.066406 10.558594 461.914062 10.558594 538.761719 C 10.558594 540.371094 10.632812 541.992188 10.519531 543.59375 C 10.300781 546.667969 8.96875 549.089844 5.570312 548.925781 C 2.339844 548.769531 0.863281 546.480469 0.78125 543.324219 C 0.75 542.035156 0.757812 540.746094 0.757812 539.457031 C 0.757812 456.332031 0.769531 373.199219 0.757812 290.074219 C 0.757812 288.460938 0.15625 286.695312 0.644531 285.292969 C 1.308594 283.378906 2.402344 280.855469 3.96875 280.230469 C 5.519531 279.609375 8.648438 280.367188 9.757812 281.65625 C 13.429688 285.90625 16.515625 290.65625 19.789062 295.25 C 56.851562 347.164062 93.902344 399.085938 130.964844 451 C 131.691406 452.019531 132.5625 452.914062 133.6875 454.242188 C 135.058594 452.402344 136.222656 450.898438 137.324219 449.347656 C 191.453125 372.800781 245.570312 296.257812 299.683594 219.710938 C 299.964844 219.316406 300.234375 218.921875 300.515625 218.527344 C 302.324219 215.929688 304.746094 214.777344 307.554688 216.574219 C 310.515625 218.476562 310.691406 221.46875 308.871094 224.191406 C 305.039062 229.960938 300.964844 235.5625 296.953125 241.207031 C 225.539062 341.820312 154.128906 442.4375 82.707031 543.050781 C 81.867188 544.238281 81.035156 545.421875 80.152344 546.566406 C 78.207031 549.089844 75.785156 549.910156 72.992188 548.101562 C 69.976562 546.160156 69.695312 543.488281 71.660156 540.621094 C 77.949219 531.453125 84.113281 522.203125 90.636719 513.214844 C 101.71875 497.96875 112.953125 482.835938 124.300781 467.796875 C 126.621094 464.730469 126.671875 462.683594 124.34375 459.441406 C 88.019531 408.992188 51.851562 358.417969 15.640625 307.867188 C 14.4375 306.191406 13.1875 304.539062 11.960938 302.886719 C 11.496094 302.972656 11.015625 303.054688 10.550781 303.136719 Z M 10.550781 303.136719 " fill-opacity="1" fill-rule="nonzero"/></g><path fill="#fc7306" d="M 260.398438 347.476562 C 259.277344 348.972656 258.113281 350.445312 257.03125 351.976562 C 210.742188 417.085938 164.460938 482.199219 118.160156 547.3125 C 97.808594 575.925781 77.417969 604.507812 57.046875 633.097656 C 56.488281 633.886719 56.03125 635.15625 55.3125 635.34375 C 53.066406 635.914062 50.40625 636.902344 48.464844 636.207031 C 45.511719 635.144531 45.480469 632.265625 47.164062 629.742188 C 52.421875 621.832031 57.558594 613.828125 63.074219 606.097656 C 129.082031 513.503906 195.152344 420.953125 261.199219 328.394531 C 262.964844 325.917969 264.453125 322.71875 268.328125 324.078125 C 272.132812 325.421875 272.089844 328.953125 272.101562 332.1875 C 272.152344 353.617188 272.175781 375.039062 272.164062 396.46875 C 272.164062 439.808594 272.144531 483.136719 272.121094 526.476562 C 272.121094 533.304688 270.5625 535.964844 266.625 535.902344 C 262.820312 535.839844 261.542969 533.542969 261.542969 526.703125 C 261.542969 469.1875 261.542969 411.683594 261.542969 354.167969 C 261.542969 352.109375 261.542969 350.050781 261.542969 347.984375 C 261.15625 347.828125 260.773438 347.652344 260.398438 347.476562 Z M 260.398438 347.476562 " fill-opacity="1" fill-rule="nonzero"/><g transform="matrix(1, 0, 0, 1, 490, 231)"><g clip-path="url(#790e5dc483)"><g fill="#fc7306" fill-opacity="1"><g transform="translate(0.929064, 183.222699)"><g><path d="M 153.6875 -123.265625 L 153.6875 0 L 119.421875 0 L 119.421875 -68.015625 L 96.171875 0 L 67.484375 0 L 44.0625 -68.53125 L 44.0625 0 L 9.796875 0 L 9.796875 -123.265625 L 51.234375 -123.265625 L 82.171875 -43.1875 L 112.421875 -123.265625 Z M 153.6875 -123.265625 "/></g></g></g><g fill="#fc7306" fill-opacity="1"><g transform="translate(164.399935, 183.222699)"><g><path d="M 4.203125 -49.125 C 4.203125 -59.269531 6.035156 -68.128906 9.703125 -75.703125 C 13.378906 -83.285156 18.390625 -89.113281 24.734375 -93.1875 C 31.085938 -97.269531 38.171875 -99.3125 45.984375 -99.3125 C 52.742188 -99.3125 58.570312 -97.96875 63.46875 -95.28125 C 68.363281 -92.601562 72.148438 -88.992188 74.828125 -84.453125 L 74.828125 -98.09375 L 109.109375 -98.09375 L 109.109375 0 L 74.828125 0 L 74.828125 -13.640625 C 72.148438 -9.085938 68.332031 -5.472656 63.375 -2.796875 C 58.425781 -0.117188 52.628906 1.21875 45.984375 1.21875 C 38.171875 1.21875 31.085938 -0.816406 24.734375 -4.890625 C 18.390625 -8.972656 13.378906 -14.832031 9.703125 -22.46875 C 6.035156 -30.101562 4.203125 -38.988281 4.203125 -49.125 Z M 74.828125 -49.125 C 74.828125 -55.425781 73.109375 -60.378906 69.671875 -63.984375 C 66.234375 -67.597656 62.007812 -69.40625 57 -69.40625 C 51.875 -69.40625 47.617188 -67.628906 44.234375 -64.078125 C 40.859375 -60.523438 39.171875 -55.539062 39.171875 -49.125 C 39.171875 -42.832031 40.859375 -37.847656 44.234375 -34.171875 C 47.617188 -30.503906 51.875 -28.671875 57 -28.671875 C 62.007812 -28.671875 66.234375 -30.476562 69.671875 -34.09375 C 73.109375 -37.707031 74.828125 -42.71875 74.828125 -49.125 Z M 74.828125 -49.125 "/></g></g></g><g fill="#fc7306" fill-opacity="1"><g transform="translate(283.287852, 183.222699)"><g><path d="M 44.0625 -80.78125 C 47.90625 -86.375 52.566406 -90.800781 58.046875 -94.0625 C 63.523438 -97.332031 69.410156 -98.96875 75.703125 -98.96875 L 75.703125 -62.421875 L 66.09375 -62.421875 C 58.632812 -62.421875 53.097656 -60.960938 49.484375 -58.046875 C 45.867188 -55.128906 44.0625 -50.0625 44.0625 -42.84375 L 44.0625 0 L 9.796875 0 L 9.796875 -98.09375 L 44.0625 -98.09375 Z M 44.0625 -80.78125 "/></g></g></g><g fill="#fc7306" fill-opacity="1"><g transform="translate(361.439154, 183.222699)"><g><path d="M 71.15625 0 L 44.0625 -40.21875 L 44.0625 0 L 9.796875 0 L 9.796875 -129.390625 L 44.0625 -129.390625 L 44.0625 -59.625 L 71.15625 -98.09375 L 112.25 -98.09375 L 73.609375 -48.78125 L 112.953125 0 Z M 71.15625 0 "/></g></g></g><g fill="#fc7306" fill-opacity="1"><g transform="translate(474.557501, 183.222699)"><g><path d="M 103.5 -50.1875 C 103.5 -47.5 103.328125 -44.816406 102.984375 -42.140625 L 38.109375 -42.140625 C 38.460938 -36.773438 39.953125 -32.78125 42.578125 -30.15625 C 45.203125 -27.539062 48.550781 -26.234375 52.625 -26.234375 C 58.34375 -26.234375 62.421875 -28.796875 64.859375 -33.921875 L 101.40625 -33.921875 C 99.894531 -27.160156 96.953125 -21.128906 92.578125 -15.828125 C 88.203125 -10.523438 82.691406 -6.359375 76.046875 -3.328125 C 69.410156 -0.296875 62.070312 1.21875 54.03125 1.21875 C 44.351562 1.21875 35.753906 -0.816406 28.234375 -4.890625 C 20.710938 -8.972656 14.828125 -14.800781 10.578125 -22.375 C 6.328125 -29.957031 4.203125 -38.875 4.203125 -49.125 C 4.203125 -59.382812 6.296875 -68.273438 10.484375 -75.796875 C 14.679688 -83.316406 20.539062 -89.113281 28.0625 -93.1875 C 35.582031 -97.269531 44.238281 -99.3125 54.03125 -99.3125 C 63.695312 -99.3125 72.257812 -97.328125 79.71875 -93.359375 C 87.1875 -89.398438 93.015625 -83.71875 97.203125 -76.3125 C 101.398438 -68.914062 103.5 -60.207031 103.5 -50.1875 Z M 68.53125 -58.75 C 68.53125 -62.945312 67.128906 -66.238281 64.328125 -68.625 C 61.535156 -71.007812 58.046875 -72.203125 53.859375 -72.203125 C 49.660156 -72.203125 46.21875 -71.066406 43.53125 -68.796875 C 40.851562 -66.523438 39.109375 -63.175781 38.296875 -58.75 Z M 68.53125 -58.75 "/></g></g></g><g fill="#fc7306" fill-opacity="1"><g transform="translate(582.25598, 183.222699)"><g><path d="M 67.671875 -29.203125 L 67.671875 0 L 52.796875 0 C 27.742188 0 15.21875 -12.410156 15.21875 -37.234375 L 15.21875 -69.59375 L 3.140625 -69.59375 L 3.140625 -98.09375 L 15.21875 -98.09375 L 15.21875 -121.859375 L 49.65625 -121.859375 L 49.65625 -98.09375 L 67.484375 -98.09375 L 67.484375 -69.59375 L 49.65625 -69.59375 L 49.65625 -36.71875 C 49.65625 -34.039062 50.265625 -32.117188 51.484375 -30.953125 C 52.710938 -29.785156 54.785156 -29.203125 57.703125 -29.203125 Z M 67.671875 -29.203125 "/></g></g></g><g fill="#fc7306" fill-opacity="1"><g transform="translate(655.861526, 183.222699)"><g><path d="M 27.09375 -107.171875 C 21.039062 -107.171875 16.175781 -108.832031 12.5 -112.15625 C 8.832031 -115.476562 7 -119.644531 7 -124.65625 C 7 -129.789062 8.832031 -134.046875 12.5 -137.421875 C 16.175781 -140.804688 21.039062 -142.5 27.09375 -142.5 C 33.039062 -142.5 37.847656 -140.804688 41.515625 -137.421875 C 45.191406 -134.046875 47.03125 -129.789062 47.03125 -124.65625 C 47.03125 -119.644531 45.191406 -115.476562 41.515625 -112.15625 C 37.847656 -108.832031 33.039062 -107.171875 27.09375 -107.171875 Z M 44.0625 -98.09375 L 44.0625 0 L 9.796875 0 L 9.796875 -98.09375 Z M 44.0625 -98.09375 "/></g></g></g><g fill="#fc7306" fill-opacity="1"><g transform="translate(709.710789, 183.222699)"><g><path d="M 73.953125 -98.96875 C 85.265625 -98.96875 94.238281 -95.207031 100.875 -87.6875 C 107.519531 -80.164062 110.84375 -69.992188 110.84375 -57.171875 L 110.84375 0 L 76.578125 0 L 76.578125 -52.625 C 76.578125 -58.21875 75.117188 -62.617188 72.203125 -65.828125 C 69.296875 -69.035156 65.394531 -70.640625 60.5 -70.640625 C 55.363281 -70.640625 51.335938 -69.035156 48.421875 -65.828125 C 45.515625 -62.617188 44.0625 -58.21875 44.0625 -52.625 L 44.0625 0 L 9.796875 0 L 9.796875 -98.09375 L 44.0625 -98.09375 L 44.0625 -84.09375 C 47.09375 -88.53125 51.171875 -92.117188 56.296875 -94.859375 C 61.429688 -97.597656 67.316406 -98.96875 73.953125 -98.96875 Z M 73.953125 -98.96875 "/></g></g></g><g fill="#fc7306" fill-opacity="1"><g transform="translate(829.647675, 183.222699)"><g><path d="M 45.984375 -99.3125 C 52.628906 -99.3125 58.425781 -97.96875 63.375 -95.28125 C 68.332031 -92.601562 72.148438 -88.992188 74.828125 -84.453125 L 74.828125 -98.09375 L 109.109375 -98.09375 L 109.109375 -1.046875 C 109.109375 8.160156 107.359375 16.460938 103.859375 23.859375 C 100.359375 31.265625 94.90625 37.179688 87.5 41.609375 C 80.101562 46.035156 70.753906 48.25 59.453125 48.25 C 44.296875 48.25 32.171875 44.691406 23.078125 37.578125 C 13.984375 30.472656 8.796875 20.800781 7.515625 8.5625 L 41.265625 8.5625 C 41.960938 11.707031 43.707031 14.15625 46.5 15.90625 C 49.300781 17.65625 52.914062 18.53125 57.34375 18.53125 C 69 18.53125 74.828125 12.003906 74.828125 -1.046875 L 74.828125 -13.640625 C 72.148438 -9.085938 68.332031 -5.472656 63.375 -2.796875 C 58.425781 -0.117188 52.628906 1.21875 45.984375 1.21875 C 38.171875 1.21875 31.085938 -0.816406 24.734375 -4.890625 C 18.390625 -8.972656 13.378906 -14.832031 9.703125 -22.46875 C 6.035156 -30.101562 4.203125 -38.988281 4.203125 -49.125 C 4.203125 -59.269531 6.035156 -68.128906 9.703125 -75.703125 C 13.378906 -83.285156 18.390625 -89.113281 24.734375 -93.1875 C 31.085938 -97.269531 38.171875 -99.3125 45.984375 -99.3125 Z M 74.828125 -49.125 C 74.828125 -55.425781 73.109375 -60.378906 69.671875 -63.984375 C 66.234375 -67.597656 62.007812 -69.40625 57 -69.40625 C 51.875 -69.40625 47.617188 -67.628906 44.234375 -64.078125 C 40.859375 -60.523438 39.171875 -55.539062 39.171875 -49.125 C 39.171875 -42.832031 40.859375 -37.847656 44.234375 -34.171875 C 47.617188 -30.503906 51.875 -28.671875 57 -28.671875 C 62.007812 -28.671875 66.234375 -30.476562 69.671875 -34.09375 C 73.109375 -37.707031 74.828125 -42.71875 74.828125 -49.125 Z M 74.828125 -49.125 "/></g></g></g></g></g><g transform="matrix(1, 0, 0, 1, 492, 421)"><g clip-path="url(#a8f96b95c1)"><g fill="#fc7306" fill-opacity="1"><g transform="translate(0.810824, 146.500219)"><g><path d="M 67.25 -96.5625 L 67.25 -83.640625 L 26.265625 -83.640625 L 26.265625 -55.15625 L 58.21875 -55.15625 L 58.21875 -42.234375 L 26.265625 -42.234375 L 26.265625 0 L 10.421875 0 L 10.421875 -96.5625 Z M 67.25 -96.5625 "/></g></g></g><g fill="#fc7306" fill-opacity="1"><g transform="translate(66.663032, 146.500219)"><g><path d="M 26.265625 -96.5625 L 26.265625 0 L 10.421875 0 L 10.421875 -96.5625 Z M 26.265625 -96.5625 "/></g></g></g><g fill="#fc7306" fill-opacity="1"><g transform="translate(97.643788, 146.500219)"><g><path d="M 80.3125 -68.78125 C 77.800781 -73.59375 74.320312 -77.222656 69.875 -79.671875 C 65.4375 -82.128906 60.300781 -83.359375 54.46875 -83.359375 C 48.070312 -83.359375 42.375 -81.921875 37.375 -79.046875 C 32.375 -76.179688 28.457031 -72.109375 25.625 -66.828125 C 22.800781 -61.546875 21.390625 -55.429688 21.390625 -48.484375 C 21.390625 -41.535156 22.800781 -35.398438 25.625 -30.078125 C 28.457031 -24.753906 32.375 -20.65625 37.375 -17.78125 C 42.375 -14.914062 48.070312 -13.484375 54.46875 -13.484375 C 63.082031 -13.484375 70.070312 -15.890625 75.4375 -20.703125 C 80.8125 -25.515625 84.101562 -32.046875 85.3125 -40.296875 L 49.046875 -40.296875 L 49.046875 -52.9375 L 102.265625 -52.9375 L 102.265625 -40.5625 C 101.242188 -33.0625 98.578125 -26.160156 94.265625 -19.859375 C 89.960938 -13.566406 84.359375 -8.546875 77.453125 -4.796875 C 70.554688 -1.046875 62.894531 0.828125 54.46875 0.828125 C 45.382812 0.828125 37.09375 -1.273438 29.59375 -5.484375 C 22.09375 -9.703125 16.140625 -15.5625 11.734375 -23.0625 C 7.335938 -30.5625 5.140625 -39.035156 5.140625 -48.484375 C 5.140625 -57.929688 7.335938 -66.40625 11.734375 -73.90625 C 16.140625 -81.414062 22.113281 -87.273438 29.65625 -91.484375 C 37.207031 -95.703125 45.476562 -97.8125 54.46875 -97.8125 C 64.75 -97.8125 73.894531 -95.285156 81.90625 -90.234375 C 89.914062 -85.191406 95.726562 -78.039062 99.34375 -68.78125 Z M 80.3125 -68.78125 "/></g></g></g><g fill="#fc7306" fill-opacity="1"><g transform="translate(199.339951, 146.500219)"><g><path d="M 26.125 -96.5625 L 26.125 -35.015625 C 26.125 -27.691406 28.046875 -22.175781 31.890625 -18.46875 C 35.734375 -14.769531 41.082031 -12.921875 47.9375 -12.921875 C 54.882812 -12.921875 60.28125 -14.769531 64.125 -18.46875 C 67.96875 -22.175781 69.890625 -27.691406 69.890625 -35.015625 L 69.890625 -96.5625 L 85.71875 -96.5625 L 85.71875 -35.296875 C 85.71875 -27.421875 84.003906 -20.75 80.578125 -15.28125 C 77.148438 -9.8125 72.566406 -5.734375 66.828125 -3.046875 C 61.085938 -0.367188 54.742188 0.96875 47.796875 0.96875 C 40.847656 0.96875 34.523438 -0.367188 28.828125 -3.046875 C 23.128906 -5.734375 18.613281 -9.8125 15.28125 -15.28125 C 11.945312 -20.75 10.28125 -27.421875 10.28125 -35.296875 L 10.28125 -96.5625 Z M 26.125 -96.5625 "/></g></g></g><g fill="#fc7306" fill-opacity="1"><g transform="translate(289.504912, 146.500219)"><g><path d="M 26.265625 -83.78125 L 26.265625 -55.4375 L 59.609375 -55.4375 L 59.609375 -42.515625 L 26.265625 -42.515625 L 26.265625 -12.921875 L 63.765625 -12.921875 L 63.765625 0 L 10.421875 0 L 10.421875 -96.703125 L 63.765625 -96.703125 L 63.765625 -83.78125 Z M 26.265625 -83.78125 "/></g></g></g><g fill="#fc7306" fill-opacity="1"><g transform="translate(356.607483, 146.500219)"><g><path d="M 60.578125 0 L 38.34375 -38.625 L 26.265625 -38.625 L 26.265625 0 L 10.421875 0 L 10.421875 -96.5625 L 43.765625 -96.5625 C 51.171875 -96.5625 57.441406 -95.265625 62.578125 -92.671875 C 67.722656 -90.078125 71.566406 -86.601562 74.109375 -82.25 C 76.660156 -77.894531 77.9375 -73.03125 77.9375 -67.65625 C 77.9375 -61.363281 76.109375 -55.644531 72.453125 -50.5 C 68.796875 -45.363281 63.171875 -41.867188 55.578125 -40.015625 L 79.46875 0 Z M 26.265625 -51.265625 L 43.765625 -51.265625 C 49.691406 -51.265625 54.160156 -52.742188 57.171875 -55.703125 C 60.179688 -58.671875 61.6875 -62.65625 61.6875 -67.65625 C 61.6875 -72.664062 60.203125 -76.582031 57.234375 -79.40625 C 54.273438 -82.226562 49.785156 -83.640625 43.765625 -83.640625 L 26.265625 -83.640625 Z M 26.265625 -51.265625 "/></g></g></g><g fill="#fc7306" fill-opacity="1"><g transform="translate(438.714501, 146.500219)"><g><path d="M 54.46875 0.96875 C 45.476562 0.96875 37.207031 -1.132812 29.65625 -5.34375 C 22.113281 -9.5625 16.140625 -15.441406 11.734375 -22.984375 C 7.335938 -30.535156 5.140625 -39.035156 5.140625 -48.484375 C 5.140625 -57.929688 7.335938 -66.40625 11.734375 -73.90625 C 16.140625 -81.414062 22.113281 -87.273438 29.65625 -91.484375 C 37.207031 -95.703125 45.476562 -97.8125 54.46875 -97.8125 C 63.539062 -97.8125 71.847656 -95.703125 79.390625 -91.484375 C 86.941406 -87.273438 92.894531 -81.414062 97.25 -73.90625 C 101.601562 -66.40625 103.78125 -57.929688 103.78125 -48.484375 C 103.78125 -39.035156 101.601562 -30.535156 97.25 -22.984375 C 92.894531 -15.441406 86.941406 -9.5625 79.390625 -5.34375 C 71.847656 -1.132812 63.539062 0.96875 54.46875 0.96875 Z M 54.46875 -12.78125 C 60.851562 -12.78125 66.546875 -14.238281 71.546875 -17.15625 C 76.554688 -20.070312 80.472656 -24.238281 83.296875 -29.65625 C 86.117188 -35.082031 87.53125 -41.359375 87.53125 -48.484375 C 87.53125 -55.617188 86.117188 -61.867188 83.296875 -67.234375 C 80.472656 -72.609375 76.554688 -76.734375 71.546875 -79.609375 C 66.546875 -82.484375 60.851562 -83.921875 54.46875 -83.921875 C 48.070312 -83.921875 42.375 -82.484375 37.375 -79.609375 C 32.375 -76.734375 28.457031 -72.609375 25.625 -67.234375 C 22.800781 -61.867188 21.390625 -55.617188 21.390625 -48.484375 C 21.390625 -41.359375 22.800781 -35.082031 25.625 -29.65625 C 28.457031 -24.238281 32.375 -20.070312 37.375 -17.15625 C 42.375 -14.238281 48.070312 -12.78125 54.46875 -12.78125 Z M 54.46875 -12.78125 "/></g></g></g><g fill="#fc7306" fill-opacity="1"><g transform="translate(541.938918, 146.500219)"><g><path d="M 68.640625 -19.734375 L 28.203125 -19.734375 L 21.25 0 L 4.71875 0 L 39.3125 -96.703125 L 57.65625 -96.703125 L 92.25 0 L 75.578125 0 Z M 64.1875 -32.65625 L 48.484375 -77.53125 L 32.65625 -32.65625 Z M 64.1875 -32.65625 "/></g></g></g></g></g><path stroke-linecap="butt" transform="matrix(0, -0.75, 0.75, 0, 389.708072, 636.925764)" fill="none" stroke-linejoin="miter" d="M -0.0000230572 6.998612 L 618.479175 6.998612 " stroke="#fc7306" stroke-width="14" stroke-opacity="1" stroke-miterlimit="4"/></svg>