<svg width="1200" height="750" viewBox="0 0 1200 750" fill="none" xmlns="http://www.w3.org/2000/svg">
  <rect width="1200" height="750" rx="40" fill="#111111"/>
  <rect x="50" y="50" width="1100" height="650" rx="28" fill="#1D1D1D" stroke="#FC7306" stroke-width="3"/>
  <rect x="110" y="110" width="360" height="26" rx="13" fill="#FC7306"/>
  <rect x="110" y="165" width="520" height="42" rx="21" fill="white" fill-opacity="0.95"/>
  <rect x="110" y="227" width="460" height="18" rx="9" fill="white" fill-opacity="0.45"/>
  <rect x="110" y="260" width="430" height="18" rx="9" fill="white" fill-opacity="0.3"/>
  <rect x="110" y="320" width="250" height="56" rx="28" fill="#FC7306"/>
  <rect x="720" y="150" width="330" height="430" rx="28" fill="white" fill-opacity="0.08" stroke="white" stroke-opacity="0.12"/>
  <rect x="770" y="220" width="230" height="16" rx="8" fill="#FC7306"/>
  <rect x="770" y="260" width="180" height="60" rx="30" fill="white" fill-opacity="0.95"/>
  <rect x="770" y="350" width="160" height="16" rx="8" fill="white" fill-opacity="0.28"/>
  <rect x="770" y="385" width="200" height="16" rx="8" fill="white" fill-opacity="0.2"/>
  <rect x="770" y="420" width="140" height="16" rx="8" fill="white" fill-opacity="0.14"/>
  <text x="110" y="620" fill="white" font-family="Arial, sans-serif" font-size="46" font-weight="700">Placeholder de case: Landing page</text>
</svg>
