<svg width="1200" height="750" viewBox="0 0 1200 750" fill="none" xmlns="http://www.w3.org/2000/svg">
  <rect width="1200" height="750" rx="40" fill="#FFF4E9"/>
  <rect x="50" y="50" width="1100" height="650" rx="28" fill="white" stroke="#111111" stroke-opacity="0.08" stroke-width="3"/>
  <rect x="110" y="110" width="320" height="460" rx="26" fill="#111111"/>
  <rect x="155" y="155" width="230" height="22" rx="11" fill="#FC7306"/>
  <rect x="155" y="205" width="170" height="180" rx="22" fill="white" fill-opacity="0.1"/>
  <rect x="155" y="415" width="210" height="14" rx="7" fill="white" fill-opacity="0.28"/>
  <rect x="155" y="445" width="190" height="14" rx="7" fill="white" fill-opacity="0.2"/>
  <rect x="500" y="120" width="570" height="110" rx="28" fill="#FC7306"/>
  <rect x="550" y="158" width="220" height="18" rx="9" fill="white" fill-opacity="0.9"/>
  <rect x="500" y="270" width="570" height="120" rx="28" fill="#111111"/>
  <rect x="550" y="314" width="260" height="18" rx="9" fill="#FC7306"/>
  <rect x="500" y="430" width="570" height="120" rx="28" fill="#111111" fill-opacity="0.08"/>
  <rect x="550" y="474" width="180" height="18" rx="9" fill="#111111" fill-opacity="0.8"/>
  <text x="110" y="640" fill="#111111" font-family="Arial, sans-serif" font-size="46" font-weight="700">Placeholder de case: Area de membros</text>
</svg>
